<?xml version="1.0" encoding="utf-8"?>
<!-- Generator: Adobe Illustrator 19.0.0, SVG Export Plug-In . SVG Version: 6.00 Build 0)  -->
<svg version="1.1" id="Layer_1" xmlns="http://www.w3.org/2000/svg" xmlns:xlink="http://www.w3.org/1999/xlink" x="0px" y="0px"
	 width="686px" height="161px" viewBox="301 -41 686 161" style="enable-background:new 301 -41 686 161;" xml:space="preserve">
<style type="text/css">
	.st0{fill:#76CBC4;}
	.st1{fill:#68A7DA;}
	.st2{fill:#ACD6E9;}
	.st3{fill:#0C0C0C;}
	.st4{fill:#292929;}
</style>
<title>vector_h-trans</title>
<g>
	<path class="st0" d="M416.6,118.3c-3.9-3.4-9.1-5-12.7-9c-10.8-12.1-9-30.8,3.9-41.2c11.7-9.3,31-6.1,39.7,6.6
		c9.3,13.7,5.1,31.9-9.2,40.1c-2,1.1-4.6,1.2-5.9,3.5C427.1,118.3,421.8,118.3,416.6,118.3z"/>
	<path class="st1" d="M422.9-39.3c11.8,7.7,15.1,13.7,12.8,23.1c-2,8-8.6,13.9-16.4,14.5c-7.9,0.7-16.2-4.7-19-12.4
		c-2.8-7.6-0.4-15.9,6.1-21c1.8-1.4,3.7-2.8,5.5-4.2C415.5-39.3,419.2-39.3,422.9-39.3z"/>
	<path class="st2" d="M325.2,25.3c3-1.3,4.7-4.9,8.7-4.9c4.9,0,8.8,0.8,10.4,6.2c1.4,4.5,0.8,8.5-3.2,11.1
		c-4.3,2.7-8.9,3.2-12.9-0.9c-1.1-1.1-2-2.4-3-3.6C325.2,30.6,325.2,27.9,325.2,25.3z"/>
	<path class="st3" d="M528.3,7.9c0-10,0.2-19.9-0.1-29.8c-0.2-4.6,0.8-6.6,5.9-6.3c9.9,0.7,19.9-0.9,29.8,1.1
		c17.9,3.6,29.1,16.8,29.2,34.6c0.1,17.7-11,31.6-28.5,35.3c-10.9,2.3-21.9,0.8-32.9,1.2c-4.3,0.2-3.3-3.1-3.4-5.5
		C528.3,28.3,528.3,18.1,528.3,7.9z M551.2,32.4c1.3,0,2.6,0.1,3.9,0c15.1-0.7,24.5-9.8,24.8-24c0.3-14.3-9.5-24.2-24.6-25
		c-2.9-0.1-5.8,0.2-8.7-0.1c-4.3-0.4-5.9,1-5.8,5.6c0.3,11,0.1,22,0.1,33.1C541,32.5,541,32.5,551.2,32.4z"/>
	<path class="st2" d="M430.6,30.7c0-16.3,11.5-27.6,27.8-27.5c14.8,0.1,27.5,13.1,27.3,27.9c-0.2,15.3-12.9,27.5-28.6,27.4
		C441.6,58.4,430.6,46.9,430.6,30.7z"/>
	<path class="st3" d="M727.5,44.9c-6-0.1-14-2.7-21-7.5c-2-1.4-6.8-2.5-2.7-6.9c2.7-2.8,4.2-7.8,9.5-3.2c6.1,5.3,13.5,6.6,21.4,5.9
		c5-0.4,8.6-2.6,9.4-7.8c0.8-5.1-2.7-7.8-6.9-9.2c-5.7-1.9-11.6-3.2-17.3-5.1C707.7,7.1,703.5,0.8,704.5-11
		c0.8-9.2,8-15.9,19.2-17.7c8.6-1.4,16.8,0.1,24.3,4.3c2.3,1.3,8.3,1.5,4.7,7.4c-2.8,4.4-5,7.3-10.6,3.1c-4.7-3.5-10.5-4.6-16.5-3.6
		c-4.1,0.7-7.5,2.3-8.3,7c-0.8,5.1,1.9,8,6.3,9.5c4.7,1.6,9.5,2.8,14.3,4.2C753,8,758.5,15,756.6,26.9
		C754.8,38.4,744.5,45.4,727.5,44.9z"/>
	<path class="st3" d="M623.6,7.5c0-10,0.2-19.9-0.1-29.9c-0.1-4.3,0.8-6,5.6-5.9c14.4,0.3,28.8,0.3,43.3,0c4.9-0.1,4.8,2.4,4.7,5.8
		c-0.1,3.2,0.6,6.1-4.5,5.9c-9.9-0.4-19.9,0.2-29.9-0.2c-5.3-0.2-6.6,1.7-6.5,6.7C636.3,3,636,3,649.3,3c6,0,12.1,0.3,18.1-0.1
		c5-0.4,5.3,2.1,5.4,6.1c0,3.8-0.6,5.7-5.1,5.5c-8.1-0.3-16.3,0.4-24.4-0.2c-6.2-0.5-7.7,1.8-7.1,7.5c0.5,4.9-0.1,10,0.2,14.9
		c0.3,4.8-0.2,7.5-6.4,7.5c-6.4,0-6.5-2.9-6.4-7.6C623.8,26.9,623.6,17.2,623.6,7.5z"/>
	<path class="st2" d="M407.2,30.4c0,10.7-7.5,18.4-18,18.5c-10.6,0.1-18.6-8.1-18.4-19.1c0.1-9.3,8.8-18.6,18-18.3
		C399.9,11.9,408.2,19.2,407.2,30.4z"/>
	<path class="st0" d="M378.8,82.6c0.1,10.3-8,18.5-18.4,18.6c-10,0.1-18.9-8.4-19-18.2c-0.1-9.7,8.7-18.4,18.7-18.5
		C370.7,64.4,378.7,72.2,378.8,82.6z"/>
	<path class="st4" d="M750.2,83c4.9,2.7,8.2,6.3,6.1,12.1c-1.9,5.6-6.8,6.8-12,7.2c-17.4,1.3-17.4,1.2-17.5-16.5
		c0-5,0.4-10-0.1-14.9c-0.5-5.1,1.6-6.4,6.3-6c3.1,0.3,6.3,0,9.4,0.1c4.9,0.2,9.4,1.1,11.8,6.2C756.6,76.4,753.7,79.7,750.2,83z
		 M739.4,98.2c2.2,0,3.7,0.1,5.3,0c4-0.3,7.4-1.6,7.6-6.2c0.2-4.7-3.4-6-7.3-6.4c-2.6-0.2-5.2,0.1-7.8-0.1c-4.3-0.5-5.5,1.1-5.9,5.5
		C730.6,98.6,734.5,99,739.4,98.2z M740.8,69.3c-5.5,0-9.9-1.7-9.6,5.6c0.2,5.5,1.7,7.3,7.1,6.8c5.1-0.6,11.8,0.7,11.8-6.7
		C750.1,68.4,743.8,69.5,740.8,69.3z"/>
	<path class="st4" d="M657.1,100.7c-0.2,0.4-0.4,1.3-0.9,1.5c-1.7,0.5-3.4,0.1-3.8-1.7c-1.9-8.9-8.6-7.9-15.2-8
		c-5.5-0.1-9.7,0.5-11.3,6.7c-0.4,1.6-1.4,4-3.8,3.1c-3-1.1-0.7-3-0.1-4.4c4.4-10.1,8.8-20.1,13.4-30.1c1.8-3.9,4.5-4.7,6.6-0.2
		c4.9,10.4,9.5,21,14.3,31.5C656.5,99.5,656.7,99.9,657.1,100.7z M638.8,70.3c-3,6.7-5.4,12.2-7.8,17.8c5.5,0,10.3,0,15.7,0
		C644.1,82.3,641.8,77,638.8,70.3z"/>
	<path class="st1" d="M362.6-7.5c-5.3-0.1-10.4-4.9-9.9-10c0.7-5.9,3.8-9.6,10.3-9.3c6,0.3,9,3.8,9.3,9.5
		C372.7-11.9,368.1-7.5,362.6-7.5z"/>
	<path class="st4" d="M528.2,83.1c0-3.4-0.4-6.9,0.1-10.2c0.4-2.6-2.4-7.5,2.4-7.5c4,0,2,4.6,2.1,7.1c0.3,6.5,0.4,13.1,0,19.6
		c-0.3,4.7,0.9,6.7,6,6.2c3.9-0.4,7.8-0.1,11.7,0c1.4,0,2.8,0.5,2.8,2.1c0,1.6-1.3,2.1-2.7,2.1c-6.5,0-13,0-19.6,0
		c-3.2,0-2.8-2.4-2.8-4.4C528.2,93,528.2,88.1,528.2,83.1z"/>
</g>
</svg>
