<svg xmlns="http://www.w3.org/2000/svg" xmlns:xlink="http://www.w3.org/1999/xlink" style="" xml:space="preserve" width="1000" height="541.3333129882812"><rect id="backgroundrect" width="100%" height="100%" x="0" y="0" fill="none" stroke="none" class="" style=""/>
<style type="text/css">
	.showcase-mockup-1-0{fill:#E7EAF3;}
	.showcase-mockup-1-1{fill:#BDC5D1;}
	.showcase-mockup-1-2{fill:none;stroke:#FFFFFF;}
	.showcase-mockup-1-3{fill:#00DFFC;}
	.showcase-mockup-1-4{fill:#FFC107;}
	.showcase-mockup-1-5{fill:#97A4AF;}
	.showcase-mockup-1-6{fill:none;stroke:#97A4AF;}
	.showcase-mockup-1-7{fill:#FFFFFF;stroke:#E7EAF3;}
	.showcase-mockup-1-8{fill:#F8FAFD;}
	.showcase-mockup-1-9{fill:none;stroke:#E7EAF3;}
	.showcase-mockup-1-10{fill:#FFFFFF;}
</style>












<g class="currentLayer" style=""><title>Layer 1</title><path class="showcase-mockup-1-0 fill-gray-300" d="M125.19545942963879,537.9 c0,0 -84.20603677840158,-236 335.8799407888741,-335 s335.8799407888741,189 645.4937783624669,67 c111.33050937980312,-43.9 197.68246962350548,-55.9 262.5751952142002,-53.4 c107.72535795809786,4.2 191.33053616621524,109.5 182.9185161822363,232 c-2.060086526688724,30.5 -7.8111614136947445,61.3 -19.313311187706788,89.4 H125.19545942963879 z" id="svg_1"/><circle class="showcase-mockup-1-2 fill-none stroke-white" stroke-width="3" stroke-miterlimit="10" cx="56.70000076293945" cy="486" r="9.100000381469727" id="svg_28"/><circle class="showcase-mockup-1-2 fill-none stroke-white" stroke-width="2.5" stroke-miterlimit="10" cx="83.69999694824219" cy="459" r="5.099999904632568" id="svg_29"/><g id="laptop" class="">
	<path class="showcase-mockup-1-7 fill-white stroke-gray-300" stroke-miterlimit="10" d="M1226.3,577H462.5c-14.4,0-26.2-11.8-26.2-26.2V26.7c0-14.4,11.8-26.2,26.2-26.2h763.9   c14.4,0,26.2,11.8,26.2,26.2v524.2C1252.5,565.2,1240.7,577,1226.3,577z" id="svg_31"/>
	<circle class="showcase-mockup-1-0 fill-gray-300" cx="843" cy="23.799999237060547" r="3" id="svg_32"/>
	<path class="showcase-mockup-1-8 fill-gray-200" d="M1341.3,562.2H347.9c-1.5,0-2.8-1.3-2.8-2.8l0,0c0-1.5,1.3-2.8,2.8-2.8h993.4c1.5,0,2.8,1.3,2.8,2.8l0,0   C1344.1,560.9,1342.9,562.2,1341.3,562.2z" id="svg_33"/>

		<linearGradient id="showcaseMockup1_9" x1="0" y1="0.49999964237213135" x2="1" y2="0.49999964237213135">
		<stop offset="5.913846e-07" style="stop-color:#E7EAF3"/>
		<stop offset="5.235745e-02" style="stop-color:#F8FAFD"/>
		<stop offset="0.1708" style="stop-color:#FDFDFD"/>
		<stop offset="0.5" style="stop-color:#FFFFFF"/>
		<stop offset="0.8292" style="stop-color:#FDFDFD"/>
		<stop offset="0.9476" style="stop-color:#F8FAFD"/>
		<stop offset="0.9955" style="stop-color:#E7EAF3"/>
	</linearGradient>
	<path fill="url(#showcaseMockup1_9)" d="M844.6,564L345,562.2c0,0,24.1,11.3,117.8,15.8H843h3.1h380.2c93.7-4.5,117.8-15.8,117.8-15.8L844.6,564z" id="svg_34"/>

		<linearGradient id="showcaseMockup1_10" x1="0" y1="0.5" x2="1" y2="0.5">
		<stop offset="5.913846e-07" style="stop-color:#E7EAF3"/>
		<stop offset="5.235745e-02" style="stop-color:#F8FAFD"/>
		<stop offset="0.1708" style="stop-color:#FDFDFD"/>
		<stop offset="0.5" style="stop-color:#FFFFFF"/>
		<stop offset="0.8292" style="stop-color:#FDFDFD"/>
		<stop offset="0.9476" style="stop-color:#F8FAFD"/>
		<stop offset="0.9955" style="stop-color:#E7EAF3"/>
	</linearGradient>
	<path fill="url(#showcaseMockup1_10)" d="M936.4,563.7h-184c-1.9,0-3.5-1.6-3.5-3.5v-3.5H940v3.5C940,562.1,938.4,563.7,936.4,563.7z" id="svg_35"/>
	<g id="svg_36">
		<g id="svg_37">
			<path id="showcaseMockup1_11" class="showcase-mockup-1-0 fill-gray-300" d="M1216,507.7H469.4c-2.3,0-4.2-1.9-4.2-4.2V41.9c0-2.3,1.9-4.2,4.2-4.2H1216     c2.3,0,4.2,1.9,4.2,4.2v461.6C1220.2,505.9,1218.3,507.7,1216,507.7z"/>
		</g>
		<g id="svg_38">
			<defs>
				<path id="showcaseMockup1_11" d="M1216,507.7H469.4c-2.3,0-4.2-1.9-4.2-4.2V41.9c0-2.3,1.9-4.2,4.2-4.2H1216c2.3,0,4.2,1.9,4.2,4.2v461.6      C1220.2,505.9,1218.3,507.7,1216,507.7z"/>
			</defs>
			<clipPath id="showcaseMockup1_12">
				<use xlink:href="#showcaseMockup1_11" style="overflow:visible;" id="svg_39"/>
			</clipPath>
			<g clip-path="url(#showcaseMockup1_12)" id="svg_40">
				<image id="SVGshowcaseMockup1Img1" style="overflow:visible;" width="755" height="470" transform="matrix(1,0,0,1,465.1837,37.7477) " xlink:href="../../img/755x470/img1.jpg">
				</image>
			</g>
		</g>
		<g id="svg_41">
			<path class="showcase-mockup-1-9" stroke-miterlimit="10" d="M1216,507.7H469.4c-2.3,0-4.2-1.9-4.2-4.2V41.9c0-2.3,1.9-4.2,4.2-4.2H1216c2.3,0,4.2,1.9,4.2,4.2v461.6     C1220.2,505.9,1218.3,507.7,1216,507.7z" id="svg_42"/>
		</g>
	</g>
</g></g></svg>